<?xml version="1.0" encoding="UTF-8"?>
<svg version="1.1" xmlns="http://www.w3.org/2000/svg" width="512" height="512">
<path d="M0 0 C3.0291098 1.28908718 5.44777844 2.94082124 8 5 C9.33220668 6.00150044 10.665263 7.0018743 12 8 C12.58265625 7.6390625 13.1653125 7.278125 13.765625 6.90625 C20.50882482 3.08934444 26.28259482 1.6800576 34 3 C40.85428356 5.67373706 45.85796986 10.98509366 48.8125 17.6875 C51.20204397 24.93900627 51.00402512 31.6419786 47.625 38.5 C46.1845299 41.09453093 44.64773696 43.52839456 43 46 C43.54527344 46.40089844 44.09054688 46.80179688 44.65234375 47.21484375 C53.93476402 54.21236057 61.41080995 62.26283075 68.64697266 71.32177734 C70.76045784 73.94323118 72.91418088 76.53110185 75.0625 79.12402344 C80.01696107 85.10621485 84.91652428 91.12033337 89.6875 97.25 C112.02549279 125.83808525 133.15901504 144.19434397 170.52416992 149.12426758 C194.39824564 151.94755464 219.83461419 150.50723514 240 136 C243.45837909 133.1279709 246.73406349 130.08760924 250 127 C268.91026817 109.34264636 268.91026817 109.34264636 281.69140625 109.6875 C287.11008912 110.42099345 290.84724518 112.6994561 294.4375 116.75 C297.87259543 123.8949985 297.06519502 129.62674173 295 137 C295.9075 137.391875 296.815 137.78375 297.75 138.1875 C302.15092536 140.64186222 304.16055325 143.24115918 306.3125 147.75 C307.8535213 155.03482794 306.47310537 159.69619938 302.4375 165.9375 C301.79683594 166.85402344 301.15617187 167.77054688 300.49609375 168.71484375 C298.8174166 170.82365678 298.8174166 170.82365678 299 173 C300.44069147 173.93812468 301.8831045 174.87375925 303.3359375 175.79296875 C306.96608053 178.42610066 309.57746437 181.73239311 311 186 C311.203125 188.19921875 311.203125 188.19921875 311.25 190.6875 C311.27578125 191.49574219 311.3015625 192.30398437 311.328125 193.13671875 C310.48911121 200.45811294 307.33405886 205.36309785 302.375 210.625 C292.4367013 221.19934982 285.95235859 233.55175194 280.05502319 246.67422485 C271.95556468 264.63359055 263.2041122 280.26554493 250 295 C249.30777344 295.81339844 248.61554688 296.62679688 247.90234375 297.46484375 C242.63844789 303.56041487 236.82463913 308.99012779 230.94091797 314.47265625 C213.57035891 330.65878869 213.57035891 330.65878869 197.96875 348.5078125 C190.76372772 357.62845579 183.65482677 366.08629331 172 369 C170.68 369 169.36 369 168 369 C166.27755367 388.07936231 166.27755367 388.07936231 171.6328125 405.46875 C174.4077931 408.21933611 177.57512501 410.12977694 181 412 C183.14070258 413.85253108 183.88957161 414.70026581 184.875 417.375 C185.03673305 420.77139406 183.96039694 422.28560423 182 425 C181 426 181 426 177.9375 426.5625 C172.82297737 425.83185391 171.21479296 423.71864454 167.89453125 419.9453125 C166.01610522 418.0165369 164.46130523 417.03691351 162 416 C161.38125 416.70576172 161.38125 416.70576172 160.75 417.42578125 C160.1725 418.04839844 159.595 418.67101562 159 419.3125 C158.443125 419.92738281 157.88625 420.54226563 157.3125 421.17578125 C150.20211987 426.78481422 142.41217087 426.46200841 133.75 426.375 C132.57953125 426.38660156 131.4090625 426.39820313 130.203125 426.41015625 C128.51703125 426.40435547 128.51703125 426.40435547 126.796875 426.3984375 C125.27078613 426.39336182 125.27078613 426.39336182 123.71386719 426.38818359 C120.62142236 425.94584937 119.23990406 425.14257392 117 423 C116.50390625 421.0625 116.50390625 421.0625 116.5625 419 C116.56443359 417.9790625 116.56443359 417.9790625 116.56640625 416.9375 C117.14257132 414.36292457 117.898228 413.59655967 120 412 C122.75561523 411.59936523 122.75561523 411.59936523 126.05859375 411.55859375 C127.84426758 411.51895508 127.84426758 411.51895508 129.66601562 411.47851562 C131.53290039 411.45821289 131.53290039 411.45821289 133.4375 411.4375 C135.89466526 411.40303586 138.35173327 411.36041504 140.80859375 411.30859375 C141.89970459 411.29626709 142.99081543 411.28394043 144.11499023 411.27124023 C147.01460911 410.99862649 148.63488808 410.67474775 151 409 C153.78659802 405.36975303 153.34991625 400.89535431 153.4140625 396.515625 C153.43342865 395.70003113 153.4527948 394.88443726 153.4727478 394.04412842 C153.53239575 391.44619108 153.57886942 388.84820907 153.625 386.25 C153.66319342 384.48565806 153.70224595 382.72133449 153.7421875 380.95703125 C153.83808505 376.63817054 153.92217047 372.31922256 154 368 C153.43659912 367.84942139 152.87319824 367.69884277 152.29272461 367.54370117 C146.35099629 365.78704337 142.24083391 363.31880804 137.5625 359.3125 C133.73494977 355.56574815 133.73494977 355.56574815 129 354 C127.37765485 355.81592042 125.91830968 357.73160587 124.4375 359.6640625 C122 362 122 362 119.55249023 362.93115234 C116.2880734 364.27711796 114.37405473 365.356105 112 368 C110.17662038 374.167104 110.87577875 381.02303032 111.0625 387.375 C111.10379633 390.03438688 111.1307083 392.69301251 111.14268494 395.35269165 C111.15400749 397.00250161 111.183906 398.65233034 111.2358551 400.30136108 C111.34447554 406.92190573 109.84000793 411.95690996 106.375 417.6875 C97.82760256 426.00996593 88.82039787 426.20278249 77.5 426.25 C75.64568359 426.2809375 75.64568359 426.2809375 73.75390625 426.3125 C72.56667969 426.31765625 71.37945312 426.3228125 70.15625 426.328125 C68.52913086 426.34214355 68.52913086 426.34214355 66.86914062 426.35644531 C63.65900088 425.95763626 62.30043541 425.23365737 60 423 C59.46875 421.0625 59.46875 421.0625 59.5 419 C59.4896875 418.319375 59.479375 417.63875 59.46875 416.9375 C60.23750633 414.13380046 61.53411762 413.48257086 64 412 C66.76147461 411.61523438 66.76147461 411.61523438 69.90234375 411.59375 C71.03994141 411.57183594 72.17753906 411.54992187 73.34960938 411.52734375 C74.53361328 411.51832031 75.71761719 411.50929688 76.9375 411.5 C79.28008788 411.48208835 81.62262095 411.45131824 83.96484375 411.40625 C85.0024585 411.39916016 86.04007324 411.39207031 87.10913086 411.38476562 C90.4242782 410.9435299 92.31618486 409.9645131 95 408 C96.63657754 404.72684491 96.2430807 401.09377769 96.31640625 397.4921875 C96.3475779 396.23125778 96.3475779 396.23125778 96.37937927 394.94485474 C96.44485439 392.25498765 96.5037502 389.56502157 96.5625 386.875 C96.60568716 385.05337511 96.64930152 383.23176029 96.69335938 381.41015625 C96.80053368 376.94020606 96.90180685 372.47015614 97 368 C95.58182983 367.7839209 95.58182983 367.7839209 94.13500977 367.56347656 C85.86197295 366.07650756 79.78231661 359.66048652 75.0625 353.0625 C69.36326081 344.22647025 65.39453912 334.43499961 64 324 C63.23558594 323.79375 62.47117187 323.5875 61.68359375 323.375 C56.50264602 321.44107253 51.85679083 318.73903625 47.0625 316 C46.03777588 315.41621582 45.01305176 314.83243164 43.95727539 314.23095703 C10.28978172 294.87366997 -23.42762954 268.53535586 -34.2097168 229.52441406 C-40.68905635 204.93858986 -39.16369371 180.24306608 -31.0859375 156.2578125 C-30.27970813 153.8391244 -29.56138715 151.48257875 -29 149 C-29.97839844 148.61521484 -29.97839844 148.61521484 -30.9765625 148.22265625 C-37.91432974 145.18354582 -41.75865408 141.88927182 -45 135 C-48.69495182 125.3415678 -46.67147555 115.35187168 -43 106 C-43.56847656 106.22816406 -44.13695313 106.45632812 -44.72265625 106.69140625 C-49.87214201 108.6084936 -53.51576768 109.45500041 -59 108 C-61.52416204 105.47583796 -61.32525352 104.50215204 -61.375 101 C-61.11761693 88.6777853 -53.82123003 78.97141092 -46 70 C-47.36125 68.6696875 -47.36125 68.6696875 -48.75 67.3125 C-53.69097454 61.55193253 -56.07451441 53.48128745 -56.4375 45.9375 C-55.05325856 33.47932706 -51.38951348 24.18442495 -41.61328125 16.09375 C-38.16978643 13.75917724 -34.96122207 13.86522182 -30.9375 13.875 C-29.87402344 13.87242188 -28.81054688 13.86984375 -27.71484375 13.8671875 C-25 14 -25 14 -23 15 C-22.56300781 14.00419922 -22.56300781 14.00419922 -22.1171875 12.98828125 C-17.17491391 2.34218877 -12.32421447 -2.05403575 0 0 Z M-8.76171875 17.12109375 C-11.33485255 21.02543873 -12.61024759 25.56676746 -14 30 C-20.04307936 31.14610126 -22.49922327 30.98955257 -28 28 C-31.04308291 27.24984805 -31.04308291 27.24984805 -34 28 C-38.57564757 32.15000593 -40.89704631 36.92887437 -42 43 C-42.25172101 49.58502161 -41.01809871 54.75414891 -37 60 C-34.4258656 60.72259953 -34.4258656 60.72259953 -32 61 C-31.731875 60.3709375 -31.46375 59.741875 -31.1875 59.09375 C-25.97149124 47.70088876 -18.61646542 41.63056346 -7 37 C-2.45141972 35.7245535 2.1227824 35.8163726 6.8125 35.8125 C7.58142578 35.80025391 8.35035156 35.78800781 9.14257812 35.77539062 C14.43990211 35.76197968 18.89132726 36.62458811 24 38 C28.34101968 37.9264234 30.37775453 37.43689576 33.9375 34.9375 C36.13077543 31.81374408 36.67846623 29.81524667 36.42578125 25.99609375 C35.54953397 21.88818219 33.38863342 19.03027641 30.0625 16.5625 C27.14639095 15.76719753 25.88115241 15.95230821 23 17 C21.69024223 17.99751594 20.40019944 19.02116919 19.125 20.0625 C16.20099869 22.35324302 15.11967358 22.98174471 11.3125 23.5625 C6.42835821 22.73311743 3.99665235 21.26846663 0.9375 17.375 C-0.79426917 14.96717313 -0.79426917 14.96717313 -2.9375 13.875 C-5.64987286 14.03938623 -6.95257291 15.15511793 -8.76171875 17.12109375 Z M-13.61328125 55.328125 C-16.47449462 58.77770056 -18.2101863 62.92144223 -20 67 C-19.21625 68.03125 -18.4325 69.0625 -17.625 70.125 C-13.50457295 75.54661454 -12.82975895 80.31367614 -13.3125 87 C-13.46466119 94.70696431 -11.41086136 99.45006707 -7.62890625 106.07421875 C-3.38852561 113.69063386 -3.89461957 124.46562906 -5.578125 132.89453125 C-7.07968524 137.22858013 -9.13493149 141.27972492 -11.12890625 145.40234375 C-11.920012 147.03870439 -12.71035612 148.67543342 -13.5 150.3125 C-13.89767578 151.13556641 -14.29535156 151.95863281 -14.70507812 152.80664062 C-17.9980601 159.73779237 -20.34843156 166.48125747 -22 174 C-22.22300781 174.9590625 -22.44601563 175.918125 -22.67578125 176.90625 C-27.46186688 201.65063832 -23.95293466 227.7231697 -10.3125 249.0625 C7.4360559 274.37436098 31.31222035 291.00146784 58 306 C58.83208984 306.47099121 59.66417969 306.94198242 60.52148438 307.42724609 C73.58017263 314.76161378 86.9088011 319.95115159 101.078125 324.703125 C118.24266039 330.50160046 134.1560311 337.72289011 148.3125 349.25 C153.95533663 353.82815047 158.29037097 356.67517882 165.71484375 356.328125 C175.84992616 354.87283111 181.8356382 346.31825952 187.79125977 338.71240234 C194.02641364 330.84157073 200.93006351 323.79688355 208.05688477 316.73730469 C210.06784639 314.74470242 212.07058695 312.74411067 214.07226562 310.7421875 C219.71205103 305.11853551 225.34014477 299.54917086 231.40893555 294.38427734 C249.7048878 278.46620933 260.23444744 256.48038653 270.2487793 234.89526367 C276.66469109 221.10623202 284.07596298 209.9192748 294.28515625 198.59765625 C296.44838905 195.32077741 296.92299877 192.90894477 297 189 C296.0336637 186.87655778 296.0336637 186.87655778 294 186 C291.5899417 186.1509737 291.5899417 186.1509737 289.0625 186.9375 C286.30379483 187.69895256 284.5511021 188.12129977 281.74609375 187.50390625 C280 186 280 186 278.98828125 182.74609375 C279.0029764 178.0485442 280.19144152 176.61109073 283.1875 173.0625 C288.49662713 166.49675656 292.47151845 160.63186526 293 152 C292.67 151.67 292.34 151.34 292 151 C289.24862398 151.00909546 286.5101384 151.13305113 283.76171875 151.2578125 C280.5410743 150.95715828 279.25444651 150.29123235 277 148 C276.38204497 143.82880356 276.4394922 141.80339452 278.875 138.3125 C279.57625 137.549375 280.2775 136.78625 281 136 C283.39201131 132.41198304 283.24021607 129.24381732 283 125 C281.88938288 123.65874776 281.88938288 123.65874776 279.0625 123.9375 C270.48823845 125.34911623 263.57093231 134.28182624 257.3918457 139.99047852 C236.48057928 159.24334622 211.00991892 164.91368416 183.09521484 164.09326172 C152.79061842 162.74435053 125.11447474 155.62996356 103 134 C102.52320801 133.54222168 102.04641602 133.08444336 101.55517578 132.61279297 C95.45494403 126.7516323 89.75427813 120.74547251 84.48046875 114.1171875 C81.34926381 110.18222444 78.14230718 106.31256055 74.9375 102.4375 C70.53324735 97.09793406 66.1643226 91.73420284 61.8515625 86.3203125 C58.27855882 81.84275092 54.66976801 77.39869454 51 73 C50.2678125 72.11828125 49.535625 71.2365625 48.78125 70.328125 C40.12674586 60.27183498 27.62482267 50.60030544 14 49 C3.69662016 48.36524833 -5.47482051 48.10384752 -13.61328125 55.328125 Z M-31 79 C-38.30941693 83.22479069 -38.30941693 83.22479069 -43 90 C-43 90.66 -43 91.32 -43 92 C-40.35323911 91.52555245 -37.70766636 91.04568672 -35.0625 90.5625 C-34.30775391 90.42779297 -33.55300781 90.29308594 -32.77539062 90.15429688 C-29.08046826 89.75727966 -29.08046826 89.75727966 -26 88 C-26.09308537 84.51381119 -26.09308537 84.51381119 -27 81 C-28.98157009 79.74564573 -28.98157009 79.74564573 -31 79 Z M-25 106 C-29.79400122 111.93973736 -33.41527852 116.62154819 -32.8125 124.5625 C-32.24971185 128.31231315 -31.66323715 131.1592137 -29 134 C-25.54578685 135.16025399 -25.54578685 135.16025399 -22 135 C-18.98588157 133.12916787 -17.98342818 130.32852616 -17 127 C-16.40859306 120.84936785 -17.42546296 114.30245674 -21.3125 109.31640625 C-22.79376279 107.78988666 -22.79376279 107.78988666 -25 106 Z M81 333 C84.73138399 341.93150423 88.94325322 350.47162661 98 355 C104.45598971 355.54711777 107.70748373 354.76582888 113 351 C115.3909907 348.41139607 115.3909907 348.41139607 117 346 C109.88422387 342.20773649 102.69102276 339.27952546 95.0625 336.6875 C94.03576172 336.32849609 93.00902344 335.96949219 91.95117188 335.59960938 C86.59514294 333.65133943 86.59514294 333.65133943 81 333 Z " fill="#000000" transform="translate(131,43)"/>
<path d="M0 0 C1.21945313 -0.02578125 2.43890625 -0.0515625 3.6953125 -0.078125 C6.875 0.25 6.875 0.25 8.78125 1.546875 C10.62779372 4.42220736 10.22881897 6.94768963 9.875 10.25 C8.84765625 11.88671875 8.84765625 11.88671875 6.875 13.25 C4.20629941 13.79884049 1.63121436 14.21572028 -1.0625 14.5625 C-11.15971422 16.11855551 -20.53974322 19.36738251 -27.59765625 27.1328125 C-35.97036294 38.73896858 -38.41494706 51.25522905 -37.125 65.25 C-33.726576 82.71016643 -22.7035759 94.49896919 -8.53125 104.10693359 C16.36825244 120.58286583 45.96214181 136.0266229 76.7265625 130.56640625 C88.2209286 127.32267999 96.31262531 120.60948547 102.25 110.3125 C102.78625 109.301875 103.3225 108.29125 103.875 107.25 C102.6375 107.3325 101.4 107.415 100.125 107.5 C91.81452945 107.48691264 83.1240927 104.31188757 76.25 99.671875 C74.875 98.25 74.875 98.25 74.125 94.6875 C74.875 91.25 74.875 91.25 76.4375 88.75 C79.1845634 87.05949945 80.64308556 86.98560897 83.7734375 87.625 C86.26383069 88.36563738 88.64355877 89.30194234 91.0625 90.25 C103.16921261 94.75290537 114.69105236 93.61730825 126.55859375 88.734375 C137.88203 83.49187524 149.35725748 75.89856753 154.875 64.25 C154.9192322 62.58392038 154.92481163 60.91592214 154.875 59.25 C146.12946866 56.97468941 137.36455928 54.88516218 128.51953125 53.03125 C127.63538544 52.8444165 126.75123962 52.65758301 125.84030151 52.46508789 C122.19190471 51.69458368 118.54346282 50.92527178 114.89038086 50.17724609 C112.18057692 49.62049894 109.47499482 49.04616923 106.76953125 48.46875 C105.9487056 48.30507935 105.12787994 48.14140869 104.28218079 47.97277832 C99.59435739 46.95468077 96.28604619 45.84865162 92.875 42.25 C92.375 38.6875 92.375 38.6875 92.875 35.25 C94.16175842 33.55644226 94.16175842 33.55644226 95.875 32.25 C103.28284918 31.60505526 110.07397637 33.09534176 117.28515625 34.69921875 C118.45203476 34.95371292 119.61891327 35.20820709 120.82115173 35.47041321 C123.27710812 36.00949203 125.7319774 36.55354499 128.18579102 37.10229492 C131.92544352 37.93481599 135.67020689 38.74061616 139.41601562 39.54492188 C141.81025384 40.07390302 144.20414679 40.60444988 146.59765625 41.13671875 C147.70931656 41.37339767 148.82097687 41.6100766 149.96632385 41.85392761 C157.39651566 43.54897848 164.04711157 45.62676795 168.875 51.8125 C170.90955907 58.8062968 170.99110229 65.67609394 167.9375 72.375 C159.69657871 86.80238321 145.92813379 96.87939048 130.875 103.25 C128.89821684 103.77980788 126.91921307 104.30144094 124.9375 104.8125 C120.67721888 106.25127915 119.05719319 107.99484517 117.03588867 112.0168457 C116.18353599 113.88368204 115.35613995 115.75980379 114.53515625 117.640625 C108.67004474 130.39206743 97.70330909 138.09292295 84.9921875 143.2421875 C58.11809049 151.93080533 30.6732984 142.82195341 6.4765625 130.62695312 C-6.58843774 123.85133407 -18.99616892 115.91607176 -30.125 106.25 C-31.16720703 105.35087891 -31.16720703 105.35087891 -32.23046875 104.43359375 C-44.0195611 93.51101109 -51.48223579 77.42543745 -52.328125 61.40234375 C-52.67004259 43.22695072 -48.47320476 27.95903078 -35.57421875 14.46875 C-25.53647405 5.37554587 -13.50951333 0.17209571 0 0 Z " fill="#000000" transform="translate(209.125,194.75)"/>
<path d="M0 0 C3.72692572 3.28846387 4.95220532 6.49264256 5.5625 11.375 C4.91484502 16.55623986 2.83173718 19.49115904 -1.1875 22.75 C-4.71391192 24.22617243 -7.07889 24.34118895 -10.875 23.875 C-15.21476986 21.62165796 -17.97188482 19.42133071 -19.875 14.875 C-20.65444541 8.86213541 -19.26168967 5.67281037 -15.875 0.875 C-10.98261826 -2.22248278 -5.28216957 -2.06693592 0 0 Z " fill="#000000" transform="translate(148.875,104.125)"/>
</svg>
